<svg width="6.82666" height="6.82666" xmlns="http://www.w3.org/2000/svg">

 <g>
  <title>background</title>
  <rect fill="none" id="canvas_background" height="8.82666" width="8.82666" y="-1" x="-1"/>
 </g>
 <g>
  <title>Layer 1</title>
  <path fill-rule="nonzero" fill="#212121" id="svg_1" d="m2.61531,5.91976c-0.01913,0 -0.04037,-0.002 -0.06385,-0.00629l0.00958,-0.10541l0.09464,-0.00002c0.01571,-0.00439 0.02819,-0.01139 0.03784,-0.02011c0.01654,-0.01493 0.02609,-0.03564 0.03001,-0.05706c0.00131,-0.00717 0.00194,-0.01509 0.00194,-0.02345c0,-0.05723 -0.00051,-0.11068 -0.00119,-0.18242c-0.00077,-0.08056 -0.00172,-0.18065 -0.00251,-0.29541c-0.86266,0.15661 -1.06406,-0.44924 -1.07232,-0.47531c-0.13727,-0.34697 -0.32604,-0.43543 -0.32659,-0.43569l-0.00708,-0.00396c-0.4348,-0.29714 0.05076,-0.29098 0.05213,-0.29098l0.00334,0c0.34007,0.02394 0.52118,0.33748 0.53105,0.355l0.00004,-0.00002c0.10337,0.17711 0.23055,0.26445 0.35692,0.30053c0.1833,0.05233 0.36815,-0.00061 0.47734,-0.04575c0.01515,-0.08952 0.0401,-0.16693 0.07124,-0.23251c0.02098,-0.04418 0.04484,-0.08314 0.0705,-0.11697c-0.32943,-0.04674 -0.65957,-0.14219 -0.91747,-0.35928c-0.28615,-0.24089 -0.48009,-0.62783 -0.48009,-1.25708l0.00021,0c0.00003,-0.17596 0.03049,-0.33626 0.08606,-0.48111c0.05509,-0.14356 0.13493,-0.27218 0.23434,-0.38605c-0.01902,-0.05405 -0.04543,-0.14824 -0.05377,-0.27294c-0.0102,-0.1525 0.00644,-0.35149 0.09667,-0.57962l0.00208,-0.00417c0.00006,-0.00011 0.03923,-0.03347 0.09461,-0.03627c0.03652,-0.00185 0.09165,0.00007 0.16606,0.01511c0.14491,0.0293 0.36687,0.10965 0.67329,0.31423c0.12107,-0.03255 0.24602,-0.05728 0.37277,-0.07433c0.13714,-0.01844 0.27677,-0.0279 0.41623,-0.02852l0.00041,0c0.1393,0.00062 0.27878,0.01008 0.41583,0.02851c0.12681,0.01706 0.25188,0.04181 0.37317,0.07436c0.61598,-0.41135 0.89983,-0.32062 0.90067,-0.32038l0.02482,0.00736l0.00956,0.0241c0.09058,0.22843 0.10737,0.42723 0.09727,0.57941c-0.00828,0.12467 -0.03459,0.21883 -0.05353,0.27292c0.09935,0.11358 0.17894,0.24204 0.2339,0.38555c0.0557,0.14543 0.08607,0.306 0.08607,0.48184c0,0.63099 -0.19422,1.01776 -0.48093,1.25778c-0.25809,0.21607 -0.58863,0.31026 -0.91876,0.35621c0.03861,0.05049 0.07331,0.11261 0.1004,0.18658c0.03647,0.09957 0.05933,0.22086 0.05933,0.36423c0,0.25582 -0.00189,0.52199 -0.00314,0.69822c-0.00045,0.06467 -0.0008,0.11298 -0.0008,0.17683l-0.00021,0c0,0.00797 0.00082,0.01653 0.00254,0.02543c0.00411,0.02131 0.01355,0.0417 0.02967,0.05615c0.00883,0.00792 0.02005,0.01439 0.03396,0.01868l0.10002,-0.00002l0.01,0.10542c-0.0237,0.00457 -0.0461,0.00669 -0.06721,0.0067c-0.02044,0.00001 -0.03927,-0.00204 -0.05656,-0.00584l-1.79563,0.00034c-0.01685,0.00355 -0.03511,0.00547 -0.05487,0.00547l0,0.00001zm0.2128,-0.16973c-0.00361,0.01976 -0.00984,0.0394 -0.01898,0.05797l1.52032,-0.00029c-0.00856,-0.01762 -0.0145,-0.03618 -0.0181,-0.05486c-0.00285,-0.01474 -0.0042,-0.03007 -0.00421,-0.04543l-0.00021,0c0,-0.00543 0.00052,-0.07897 0.00122,-0.17724c0.00108,-0.1528 0.00272,-0.38335 0.00272,-0.69781c0,-0.13029 -0.02029,-0.23919 -0.05266,-0.32756c-0.03703,-0.10111 -0.08963,-0.17494 -0.14517,-0.22275l-0.09272,-0.07981l0.12168,-0.01353c0.34651,-0.03852 0.70093,-0.12293 0.96624,-0.34504c0.26385,-0.2209 0.4426,-0.5817 0.4426,-1.17611c0,-0.16257 -0.02788,-0.31047 -0.07899,-0.44392c-0.05403,-0.14106 -0.13409,-0.26633 -0.23468,-0.376l-0.02283,-0.02488l0.01262,-0.03116c0.01533,-0.03783 0.04868,-0.13293 0.05785,-0.27102c0.00889,-0.1339 -0.00495,-0.30721 -0.07936,-0.50652c-0.07407,-0.0086 -0.32418,-0.00333 -0.80757,0.32432l-0.02041,0.01383l-0.02354,-0.00654c-0.12385,-0.0344 -0.25216,-0.06031 -0.38252,-0.07785c-0.133,-0.01789 -0.2678,-0.02707 -0.40187,-0.02768c-0.13424,0.00061 -0.26919,0.00979 -0.40228,0.02769c-0.1303,0.01753 -0.25849,0.04342 -0.38212,0.07784l-0.02352,0.00655l-0.02043,-0.01384c-0.30282,-0.20512 -0.5173,-0.28386 -0.65498,-0.31171c-0.06367,-0.01287 -0.10991,-0.01456 -0.14023,-0.01302c-0.00877,0.00044 -0.0068,-0.01298 -0.0054,-0.01929c-0.08092,0.20789 -0.09593,0.38803 -0.08671,0.52602c0.00925,0.13827 0.04264,0.23339 0.05807,0.27122l0.01261,0.03091l-0.02282,0.02493c-0.10046,0.10978 -0.18076,0.23534 -0.23509,0.37693c-0.05127,0.13361 -0.07937,0.28129 -0.07939,0.44319l0.0002,0c0,0.59311 0.17846,0.95417 0.44176,1.17583c0.26465,0.22278 0.61828,0.30851 0.96381,0.34783l0.11977,0.01362l-0.0906,0.07929c-0.04326,0.03786 -0.08461,0.09165 -0.1181,0.16218c-0.03027,0.06375 -0.05393,0.14075 -0.06669,0.23154l-0.00409,0.02913l-0.02695,0.01211c-0.11733,0.05272 -0.34527,0.1285 -0.57627,0.06256c-0.15036,-0.04293 -0.30044,-0.14471 -0.41983,-0.34928l-0.00042,-0.00083c-0.00045,-0.0008 -0.15457,-0.28095 -0.44535,-0.30161c-0.01914,0.00041 -0.11939,0.00673 0.00942,0.09548c0.0347,0.0185 0.23628,0.13836 0.37565,0.4925l0.00126,0.00333c0.00052,0.00163 0.17302,0.57392 1.01241,0.39154l0.06398,-0.0139l0.00039,0.06578c0.00085,0.1408 0.00202,0.26386 0.00293,0.3595c0.00092,0.09691 0.00161,0.16942 0.00161,0.18325c0,0.0134 -0.00131,0.02773 -0.00403,0.04262l0,-0.00001z" class="fil0"/>
  <rect x="-0.008844" y="0.008844" fill="none" id="svg_2" width="6.82666" height="6.82666" class="fil1"/>
 </g>
</svg>